<svg width="512" height="279" viewBox="0 0 512 279" fill="none" xmlns="http://www.w3.org/2000/svg">
<path d="M260.748 16.8845L260.808 16.9748L260.871 17.0634C262.059 18.7501 263.136 20.3483 264.272 22.0333C265.073 23.2218 265.903 24.4536 266.822 25.79C268.932 29.0914 271.82 31.8255 275.236 33.7481C278.7 35.6982 282.597 36.751 286.572 36.8091C290.547 36.8672 294.473 35.9289 297.993 34.0807C301.433 32.2743 304.379 29.6554 306.578 26.4547C309.035 23.2545 311.262 19.8029 313.191 16.7891C314.723 14.5536 316.673 12.6411 318.931 11.1576C321.215 9.65713 323.769 8.62455 326.447 8.11757C329.126 7.6106 331.877 7.63892 334.545 8.20096C337.213 8.76303 339.746 9.84804 341.998 11.3953L342.043 11.4261L342.088 11.4562C344.327 12.9463 346.245 14.8751 347.729 17.129L353.994 13.0057L347.729 17.129C349.212 19.383 350.23 21.9154 350.719 24.5756C351.208 27.2358 351.159 29.9679 350.575 32.6085C349.99 35.2491 348.883 37.7428 347.32 39.9413L347.253 40.0361L347.188 40.133C332.916 61.5862 318.54 82.9504 304.061 104.226L304.019 104.287L303.979 104.349C302.168 107.126 299.712 109.415 296.827 111.021C293.942 112.627 290.713 113.502 287.419 113.572C284.125 113.643 280.862 112.906 277.912 111.425C274.962 109.944 272.413 107.763 270.486 105.066L270.462 105.032L270.438 104.999C264.37 96.6983 258.735 88.1584 253.022 79.5023C250.179 75.1936 247.317 70.8561 244.373 66.5049L244.365 66.4932L244.357 66.4814C243.128 64.6796 241.899 62.8842 240.674 61.0938C235.802 53.9722 230.985 46.9304 226.385 39.8779L226.321 39.7803L226.254 39.6847C224.13 36.6397 222.929 33.0387 222.798 29.3172C222.667 25.5958 223.614 21.9181 225.52 18.7295L225.639 18.5298L225.746 18.3229C227.417 15.0871 229.931 12.3729 233.015 10.468C236.094 8.56671 239.625 7.54195 243.234 7.50018C246.69 7.48582 250.098 8.33227 253.152 9.96573C256.213 11.6025 258.824 13.979 260.748 16.8845Z" stroke="white" stroke-width="15"/>
<path d="M135.93 28.9447L135.929 28.9009L135.928 28.857C135.787 24.3792 137.095 19.9791 139.65 16.3152C142.205 12.6519 145.869 9.9234 150.089 8.53171C154.308 7.14014 158.862 7.15804 163.071 8.58282C167.28 10.0077 170.922 12.7651 173.449 16.4486L173.457 16.4607L173.465 16.4727C179.981 25.8936 186.353 35.3877 192.762 44.9369C195.749 49.3868 198.743 53.8486 201.764 58.3206C203.054 60.2402 204.483 62.2051 205.964 64.2408C209.69 69.3617 213.742 74.9303 216.705 81.3509C220.634 89.8628 221.466 97.5761 216.734 104.718C214.776 107.529 212.155 109.805 209.11 111.345C206.045 112.895 202.646 113.652 199.22 113.548C195.794 113.445 192.446 112.484 189.479 110.751C186.512 109.018 184.02 106.567 182.23 103.617L182.178 103.532L182.124 103.448C172.795 88.9596 163.042 74.6814 153.359 60.5056C149.166 54.3663 144.985 48.2462 140.858 42.1366L140.694 41.8931L140.511 41.6633C137.633 38.0496 136.021 33.5789 135.93 28.9447Z" stroke="white" stroke-width="15"/>
<path d="M105.261 214.811C105.263 210.521 106.156 206.276 107.885 202.324C109.615 198.372 112.148 194.794 115.333 191.8C118.519 188.807 122.294 186.459 126.435 184.895C130.576 183.33 135 182.581 139.446 182.691C144.448 182.581 149.404 183.632 153.897 185.754C158.39 187.877 162.289 191.01 165.264 194.889C166.225 196.2 166.754 197.759 166.783 199.364C166.776 201.342 165.96 203.237 164.512 204.639C163.065 206.04 161.102 206.834 159.051 206.848C157.912 206.903 156.776 206.689 155.741 206.225C154.707 205.761 153.805 205.061 153.115 204.184C151.512 202.243 149.475 200.677 147.155 199.602C144.836 198.527 142.295 197.972 139.722 197.979C137.454 197.947 135.203 198.364 133.109 199.205C131.015 200.047 129.122 201.294 127.548 202.869C125.974 204.445 124.753 206.315 123.959 208.365C123.165 210.414 122.816 212.599 122.933 214.784C122.933 224.719 129.892 231.697 139.722 231.697C142.29 231.659 144.818 231.081 147.131 230.005C149.444 228.929 151.486 227.379 153.115 225.464C153.817 224.601 154.721 223.911 155.753 223.448C156.784 222.985 157.914 222.763 159.051 222.801C161.102 222.815 163.065 223.609 164.512 225.01C165.96 226.411 166.776 228.307 166.783 230.285C166.786 231.804 166.293 233.285 165.375 234.52C162.51 238.559 158.627 241.829 154.091 244.024C149.556 246.218 144.516 247.264 139.446 247.064C134.995 247.149 130.572 246.378 126.433 244.796C122.295 243.214 118.524 240.853 115.342 237.851C112.16 234.849 109.629 231.265 107.899 227.309C106.168 223.353 105.271 219.105 105.261 214.811Z" fill="white"/>
<path d="M243.689 214.799C243.435 223.399 239.716 231.565 233.319 237.561C226.923 243.558 218.355 246.913 209.435 246.913C200.515 246.913 191.946 243.558 185.55 237.561C179.154 231.565 175.434 223.399 175.18 214.799C175.434 206.199 179.154 198.033 185.55 192.036C191.946 186.04 200.515 182.685 209.435 182.685C218.355 182.685 226.923 186.04 233.319 192.036C239.716 198.033 243.435 206.199 243.689 214.799ZM192.853 214.799C192.853 219.037 194.598 223.102 197.705 226.098C200.813 229.095 205.027 230.779 209.421 230.779C213.815 230.779 218.029 229.095 221.136 226.098C224.243 223.102 225.989 219.037 225.989 214.799C226.12 212.623 225.789 210.445 225.016 208.397C224.243 206.349 223.043 204.476 221.491 202.892C219.94 201.308 218.068 200.047 215.992 199.186C213.917 198.325 211.68 197.883 209.421 197.887C199.729 197.993 192.853 205.078 192.853 214.905V214.799Z" fill="white"/>
<path d="M357.976 161.707C358.036 163.803 357.446 165.868 356.282 167.638C355.117 169.408 353.43 170.801 351.438 171.641C349.447 172.48 347.24 172.725 345.102 172.347C342.965 171.968 340.993 170.982 339.44 169.515C337.888 168.048 336.825 166.167 336.388 164.113C335.951 162.06 336.161 159.927 336.99 157.989C337.818 156.051 339.228 154.396 341.039 153.236C342.85 152.076 344.978 151.465 347.152 151.48C349.991 151.458 352.724 152.522 354.752 154.439C356.78 156.355 357.94 158.969 357.976 161.707ZM338.371 238.597V191.19C338.304 190.047 338.48 188.902 338.887 187.827C339.295 186.751 339.926 185.768 340.741 184.935C341.557 184.103 342.54 183.44 343.63 182.987C344.721 182.534 345.895 182.301 347.083 182.301C348.27 182.301 349.445 182.534 350.535 182.987C351.625 183.44 352.608 184.103 353.424 184.935C354.239 185.768 354.87 186.751 355.278 187.827C355.685 188.902 355.861 190.047 355.794 191.19V238.597C355.861 239.741 355.685 240.885 355.278 241.96C354.87 243.036 354.239 244.02 353.424 244.852C352.608 245.684 351.625 246.347 350.535 246.8C349.445 247.253 348.27 247.487 347.083 247.487C345.895 247.487 344.721 247.253 343.63 246.8C342.54 246.347 341.557 245.684 340.741 244.852C339.926 244.02 339.295 243.036 338.887 241.96C338.48 240.885 338.304 239.741 338.371 238.597Z" fill="white"/>
<path d="M97.5588 183.139C96.5039 182.648 95.3548 182.374 94.1844 182.335C93.0139 182.295 91.8477 182.491 90.7598 182.909C89.6719 183.327 88.686 183.959 87.8647 184.764C87.0434 185.57 86.4046 186.531 85.9889 187.587L72.707 216.324L59.7288 188.412C59.2833 187.11 58.5045 185.938 57.4645 185.003L57.0779 184.657C56.8693 184.474 56.6479 184.305 56.4152 184.151C55.5331 183.498 54.5162 183.035 53.433 182.793L52.1628 182.606H50.9202L49.6224 182.793C48.5411 183.04 47.5253 183.503 46.6401 184.151L45.9774 184.657L45.5908 185.003C44.5552 185.936 43.7851 187.11 43.3542 188.412L30.2932 216.457L16.8732 187.56C16.4547 186.506 15.8139 185.548 14.9914 184.746C14.1689 183.943 13.1826 183.314 12.0949 182.899C11.0073 182.483 9.84204 182.29 8.67295 182.331C7.50385 182.373 6.35639 182.648 5.30325 183.139C4.20317 183.622 3.2145 184.313 2.39552 185.17C1.57654 186.028 0.943831 187.035 0.53466 188.132C0.125489 189.229 -0.0518602 190.394 0.0130794 191.558C0.0780189 192.723 0.383929 193.862 0.912773 194.911L21.954 240.188C23.1734 242.036 24.7257 243.66 26.5378 244.982C27.6049 245.462 28.7634 245.725 29.9407 245.754C31.1181 245.783 32.2889 245.577 33.3801 245.15C34.4712 244.722 35.4592 244.082 36.2822 243.27C37.1051 242.457 37.7454 241.489 38.1629 240.427L51.3896 211.983L64.6163 240.427C65.0338 241.489 65.6741 242.457 66.497 243.27C67.32 244.082 68.308 244.722 69.3991 245.15C70.4903 245.577 71.6611 245.783 72.8385 245.754C74.0158 245.725 75.1743 245.462 76.2414 244.982C77.3193 244.493 78.2821 243.797 79.0704 242.935C79.8587 242.074 80.4559 241.067 80.8252 239.974L101.756 194.991C102.304 193.95 102.631 192.814 102.716 191.649C102.801 190.484 102.644 189.315 102.252 188.21C101.861 187.105 101.244 186.087 100.438 185.216C99.6318 184.345 98.6528 183.639 97.5588 183.139Z" fill="white"/>
<path d="M322.52 165.785C322.587 164.642 322.411 163.497 322.004 162.422C321.596 161.346 320.965 160.362 320.149 159.53C319.334 158.698 318.351 158.035 317.261 157.582C316.17 157.129 314.996 156.896 313.808 156.896C312.621 156.896 311.446 157.129 310.356 157.582C309.266 158.035 308.283 158.698 307.467 159.53C306.652 160.362 306.021 161.346 305.613 162.422C305.205 163.497 305.03 164.642 305.096 165.785V186.958C299.906 184.252 294.097 182.842 288.197 182.857C283.738 182.733 279.298 183.473 275.14 185.034C270.983 186.594 267.192 188.943 263.993 191.942C260.793 194.94 258.249 198.528 256.513 202.491C254.776 206.454 253.881 210.714 253.881 215.017C253.881 219.32 254.776 223.579 256.513 227.542C258.249 231.506 260.793 235.093 263.993 238.091C267.192 241.09 270.983 243.439 275.14 244.999C279.298 246.56 283.738 247.3 288.197 247.176C292.661 247.268 297.099 246.505 301.254 244.93C305.41 243.356 309.2 241.002 312.405 238.004C315.61 235.007 318.167 231.426 319.927 227.468C321.687 223.511 322.615 219.256 322.658 214.95C322.658 214.577 322.658 214.204 322.658 213.831C322.672 213.619 322.672 213.405 322.658 213.192L322.52 165.785ZM288.087 231.756C285.84 231.789 283.611 231.374 281.537 230.539C279.464 229.704 277.592 228.465 276.037 226.901C274.482 225.336 273.279 223.479 272.501 221.446C271.724 219.413 271.39 217.247 271.519 215.083C271.519 205.255 278.477 198.144 288.087 198.144C292.538 198.386 296.725 200.262 299.788 203.387C302.85 206.512 304.557 210.65 304.557 214.95C304.557 219.25 302.85 223.388 299.788 226.513C296.725 229.638 292.538 231.514 288.087 231.756Z" fill="white"/>
<path d="M431.679 207.455V238.562C431.736 239.683 431.554 240.803 431.143 241.852C430.732 242.902 430.101 243.858 429.291 244.663C428.48 245.467 427.506 246.102 426.43 246.528C425.354 246.954 424.199 247.162 423.036 247.138C421.879 247.143 420.733 246.922 419.666 246.489C418.599 246.057 417.633 245.421 416.826 244.621C416.02 243.82 415.389 242.871 414.971 241.83C414.553 240.79 414.356 239.678 414.393 238.562V209.692C414.514 208.136 414.294 206.573 413.747 205.104C413.2 203.636 412.339 202.295 411.218 201.169C410.098 200.044 408.744 199.158 407.246 198.571C405.747 197.983 404.136 197.707 402.52 197.76C400.894 197.714 399.275 197.993 397.766 198.58C396.258 199.166 394.891 200.048 393.752 201.168C392.614 202.289 391.728 203.625 391.15 205.092C390.573 206.558 390.317 208.125 390.397 209.692V238.562C390.446 239.681 390.258 240.797 389.844 241.843C389.431 242.889 388.8 243.843 387.991 244.646C387.182 245.448 386.211 246.084 385.139 246.512C384.067 246.941 382.915 247.154 381.755 247.138C380.587 247.157 379.427 246.947 378.346 246.521C377.265 246.095 376.284 245.462 375.463 244.661C374.643 243.859 373.999 242.906 373.571 241.858C373.143 240.809 372.94 239.688 372.974 238.562V191.155C372.936 190.044 373.133 188.938 373.552 187.903C373.971 186.868 374.604 185.925 375.413 185.133C376.221 184.341 377.188 183.716 378.254 183.295C379.32 182.874 380.464 182.667 381.616 182.686C383.518 182.683 385.364 183.311 386.842 184.466C388.32 185.62 389.342 187.23 389.735 189.024C394.692 184.832 401.091 182.572 407.683 182.686C422.373 182.686 431.679 192.407 431.679 207.455Z" fill="white"/>
<path d="M512 217.288C512 212.441 508.272 183.784 475.468 183.677C457.547 183.677 444.513 197.233 444.513 215.903C444.513 234.573 457.547 248.13 475.468 248.13C479.008 248.256 482.536 247.667 485.827 246.401C489.117 245.135 492.097 243.22 494.576 240.779L494.383 249.355C493.927 253.247 491.971 256.833 488.901 259.398C485.832 261.964 481.875 263.322 477.815 263.204C475.245 263.173 472.712 262.602 470.395 261.53C468.077 260.459 466.029 258.912 464.395 256.999C463.698 256.129 462.796 255.433 461.763 254.97C460.73 254.507 459.596 254.289 458.458 254.335C456.41 254.342 454.447 255.13 452.999 256.527C451.551 257.924 450.734 259.817 450.726 261.793C450.72 263.312 451.213 264.795 452.135 266.027C455 270.068 458.883 273.341 463.417 275.539C467.952 277.738 472.992 278.79 478.063 278.598C486.5 278.734 494.678 275.79 500.96 270.358C507.243 264.926 511.166 257.405 511.945 249.301L512 217.288ZM478.616 232.895C469.062 232.895 462.048 225.651 462.048 215.957C462.048 206.262 468.896 198.911 478.616 198.911C488.335 198.911 494.742 205.756 494.742 215.85C494.742 225.944 488.253 232.895 478.616 232.895Z" fill="white"/>
</svg>
